<svg width="1440" height="99" viewBox="0 0 1440 99" fill="none" xmlns="http://www.w3.org/2000/svg">
<g opacity="0.2">
<path d="M-23.51 34V21.768H-16.745C-13.104 21.768 -11.597 22.582 -10.53 24.958L-6.482 34H-1.411L-5.47 24.947C-6.834 21.9 -8.66 20.195 -10.981 20.008C-5.712 19.854 -2.258 16.653 -2.258 11.802C-2.258 6.357 -6.636 2.54 -12.906 2.54H-28.13V34H-23.51ZM-23.51 17.478V6.83H-13.522C-9.265 6.83 -6.878 8.7 -6.878 12.033C-6.878 15.432 -9.353 17.478 -13.5 17.478H-23.51ZM17.6015 25.959C16.4135 29.05 14.2465 30.634 11.0235 30.634C6.83247 30.634 4.06047 27.939 3.54347 23.495H22.0895C22.1335 22.846 22.1665 22.329 22.1665 21.768C22.1665 14.035 17.7225 9.085 10.7815 9.085C3.73047 9.085 -0.999532 14.2 -0.999532 21.834C-0.999532 29.512 3.78547 34.66 10.9135 34.66C16.6005 34.66 20.7915 31.393 22.0455 25.959H17.6015ZM3.63147 19.645C4.30247 15.564 6.92047 13.111 10.8035 13.111C14.5875 13.111 16.9635 15.432 17.5575 19.645H3.63147ZM29.1319 9.745H24.6769V42.305H29.1319V26.509C30.3859 31.492 33.7189 34.66 38.1299 34.66C44.1139 34.66 48.3929 29.325 48.3929 21.867C48.3929 14.42 44.1139 9.085 38.1299 9.085C33.7189 9.085 30.3859 12.242 29.1319 17.236V9.745ZM29.1319 21.867C29.1319 16.334 31.9479 13.001 36.6119 13.001C41.3639 13.001 43.9379 16.125 43.9379 21.867C43.9379 27.62 41.3529 30.744 36.6119 30.744C31.9479 30.744 29.1319 27.411 29.1319 21.867ZM55.3755 21.977C55.3755 16.587 57.6855 13.991 64.7805 13.991H65.8695V9.745H64.7695C59.6435 9.745 56.4975 12.649 55.3755 17.478V9.745H50.9205V34H55.3755V21.977ZM85.4182 25.959C84.2302 29.05 82.0632 30.634 78.8402 30.634C74.6492 30.634 71.8772 27.939 71.3602 23.495H89.9062C89.9502 22.846 89.9832 22.329 89.9832 21.768C89.9832 14.035 85.5392 9.085 78.5982 9.085C71.5472 9.085 66.8172 14.2 66.8172 21.834C66.8172 29.512 71.6022 34.66 78.7302 34.66C84.4172 34.66 88.6082 31.393 89.8622 25.959H85.4182ZM71.4482 19.645C72.1192 15.564 74.7372 13.111 78.6202 13.111C82.4042 13.111 84.7802 15.432 85.3742 19.645H71.4482ZM102.35 9.085C95.9916 9.085 92.0976 11.945 92.0976 16.411C92.0976 21.702 97.5646 22.615 101.25 23.242L102.867 23.517C106.002 24.056 109.269 24.639 109.269 27.29C109.269 29.556 106.871 30.81 102.746 30.81C98.1696 30.81 96.0136 29.259 96.0136 26.465H91.6686C91.6686 31.734 95.3976 34.66 102.757 34.66C109.819 34.66 113.603 31.965 113.603 27.18C113.603 21.306 107.905 20.404 103.846 19.766L102.229 19.513C99.5226 19.084 96.4426 18.611 96.4426 16.312C96.4426 14.288 98.8406 12.935 102.35 12.935C106.233 12.935 108.367 14.596 108.367 17.082H112.712C112.712 12.187 108.961 9.085 102.35 9.085ZM133.866 25.959C132.678 29.05 130.511 30.634 127.288 30.634C123.097 30.634 120.325 27.939 119.808 23.495H138.354C138.398 22.846 138.431 22.329 138.431 21.768C138.431 14.035 133.987 9.085 127.046 9.085C119.995 9.085 115.265 14.2 115.265 21.834C115.265 29.512 120.05 34.66 127.178 34.66C132.865 34.66 137.056 31.393 138.31 25.959H133.866ZM119.896 19.645C120.567 15.564 123.185 13.111 127.068 13.111C130.852 13.111 133.228 15.432 133.822 19.645H119.896ZM145.397 20.877C145.397 15.971 148.07 13.111 152.547 13.111C156.705 13.111 158.773 15.575 158.773 20.437V34H163.228V20.437C163.228 13.397 159.928 9.085 154.395 9.085C149.874 9.085 146.574 11.978 145.397 16.752V9.745H140.942V34H145.397V20.877ZM180.758 33.813V29.963C178.899 30.458 177.513 30.689 176.49 30.689C173.894 30.689 172.728 29.193 172.728 25.981V13.485H180.758V9.745H172.728V4.157H168.273V9.745H164.973V13.485H168.273V25.97C168.273 31.668 170.913 34.649 175.742 34.649C177.216 34.649 178.888 34.374 180.758 33.813ZM183.171 18.193H187.626C187.626 15.135 189.661 13.122 194.138 13.122C198.527 13.122 201.277 15.619 201.277 19.612V20.173H191.916C186.064 20.173 182.456 22.912 182.456 27.345C182.456 31.734 185.987 34.66 191.289 34.66C196.404 34.66 200.1 31.943 201.277 27.477V34H205.732V19.612C205.732 13.023 201.398 9.085 194.215 9.085C187.428 9.085 183.171 12.616 183.171 18.193ZM201.277 23.913V24.584C201.277 28.203 197.636 30.777 192.488 30.777C188.858 30.777 186.856 29.501 186.856 27.191C186.856 25.057 188.594 23.913 191.872 23.913H201.277ZM223.277 33.813V29.963C221.418 30.458 220.032 30.689 219.009 30.689C216.413 30.689 215.247 29.193 215.247 25.981V13.485H223.277V9.745H215.247V4.157H210.792V9.745H207.492V13.485H210.792V25.97C210.792 31.668 213.432 34.649 218.261 34.649C219.735 34.649 221.407 34.374 223.277 33.813ZM230.544 1.44H225.869V6.94H230.544V1.44ZM230.434 9.745H225.979V34H230.434V9.745ZM232.981 21.867C232.981 29.534 237.733 34.66 244.839 34.66C251.945 34.66 256.697 29.534 256.697 21.867C256.697 14.2 251.945 9.085 244.839 9.085C237.733 9.085 232.981 14.2 232.981 21.867ZM237.436 21.867C237.436 16.455 240.263 13.111 244.85 13.111C249.426 13.111 252.242 16.444 252.242 21.867C252.242 27.29 249.426 30.634 244.85 30.634C240.263 30.634 237.436 27.29 237.436 21.867ZM263.671 20.877C263.671 15.971 266.344 13.111 270.821 13.111C274.979 13.111 277.047 15.575 277.047 20.437V34H281.502V20.437C281.502 13.397 278.202 9.085 272.669 9.085C268.148 9.085 264.848 11.978 263.671 16.752V9.745H259.216V34H263.671V20.877ZM302.736 16.774H294.024V25.046H302.736V16.774ZM327.742 1.88C320.878 1.88 315.158 5.103 315.158 11.406C315.158 18.116 321.637 19.062 327.027 19.876L329.073 20.184C333.55 20.855 336.762 21.383 336.762 24.87C336.762 28.764 332.78 30.48 328.061 30.48C322.583 30.48 319.118 28.148 319.118 24.232H314.608C314.608 30.843 319.679 34.66 328.138 34.66C335.838 34.66 341.283 31.492 341.283 24.958C341.283 17.819 334.771 16.807 329.436 16.004L327.808 15.762C322.825 15.014 319.668 14.475 319.668 11.307C319.668 7.688 323.782 6.06 327.709 6.06C332.395 6.06 335.629 8.37 335.629 12.022H340.139C340.139 5.741 335.255 1.88 327.742 1.88ZM361.233 22.868C361.233 27.774 358.56 30.634 354.083 30.634C349.925 30.634 347.857 28.17 347.857 23.308V9.745H343.402V23.308C343.402 30.348 346.702 34.66 352.235 34.66C356.756 34.66 360.056 31.767 361.233 27.004V34H365.688V9.745H361.233V22.868ZM373.222 9.745H368.767V42.305H373.222V26.509C374.476 31.492 377.809 34.66 382.22 34.66C388.204 34.66 392.483 29.325 392.483 21.867C392.483 14.42 388.204 9.085 382.22 9.085C377.809 9.085 374.476 12.242 373.222 17.236V9.745ZM373.222 21.867C373.222 16.334 376.038 13.001 380.702 13.001C385.454 13.001 388.028 16.125 388.028 21.867C388.028 27.62 385.443 30.744 380.702 30.744C376.038 30.744 373.222 27.411 373.222 21.867ZM413.062 25.959C411.874 29.05 409.707 30.634 406.484 30.634C402.293 30.634 399.521 27.939 399.004 23.495H417.55C417.594 22.846 417.627 22.329 417.627 21.768C417.627 14.035 413.183 9.085 406.242 9.085C399.191 9.085 394.461 14.2 394.461 21.834C394.461 29.512 399.246 34.66 406.374 34.66C412.061 34.66 416.252 31.393 417.506 25.959H413.062ZM399.092 19.645C399.763 15.564 402.381 13.111 406.264 13.111C410.048 13.111 412.424 15.432 413.018 19.645H399.092ZM424.592 21.977C424.592 16.587 426.902 13.991 433.997 13.991H435.086V9.745H433.986C428.86 9.745 425.714 12.649 424.592 17.478V9.745H420.137V34H424.592V21.977ZM456.151 9.745L448.55 31.239L441.037 9.745H436.417L445.03 34H451.96L460.661 9.745H456.151ZM467.178 1.44H462.503V6.94H467.178V1.44ZM467.068 9.745H462.613V34H467.068V9.745ZM480.021 9.085C473.663 9.085 469.769 11.945 469.769 16.411C469.769 21.702 475.236 22.615 478.921 23.242L480.538 23.517C483.673 24.056 486.94 24.639 486.94 27.29C486.94 29.556 484.542 30.81 480.417 30.81C475.841 30.81 473.685 29.259 473.685 26.465H469.34C469.34 31.734 473.069 34.66 480.428 34.66C487.49 34.66 491.274 31.965 491.274 27.18C491.274 21.306 485.576 20.404 481.517 19.766L479.9 19.513C477.194 19.084 474.114 18.611 474.114 16.312C474.114 14.288 476.512 12.935 480.021 12.935C483.904 12.935 486.038 14.596 486.038 17.082H490.383C490.383 12.187 486.632 9.085 480.021 9.085ZM511.538 25.959C510.35 29.05 508.183 30.634 504.96 30.634C500.769 30.634 497.997 27.939 497.48 23.495H516.026C516.07 22.846 516.103 22.329 516.103 21.768C516.103 14.035 511.659 9.085 504.718 9.085C497.667 9.085 492.937 14.2 492.937 21.834C492.937 29.512 497.722 34.66 504.85 34.66C510.537 34.66 514.728 31.393 515.982 25.959H511.538ZM497.568 19.645C498.239 15.564 500.857 13.111 504.74 13.111C508.524 13.111 510.9 15.432 511.494 19.645H497.568ZM537.324 1.44V17.214C536.059 12.242 532.726 9.085 528.326 9.085C522.342 9.085 518.063 14.42 518.063 21.867C518.063 29.325 522.342 34.66 528.326 34.66C532.726 34.66 536.059 31.503 537.324 26.531V34H541.779V1.44H537.324ZM537.324 21.867C537.324 27.411 534.508 30.744 529.844 30.744C525.103 30.744 522.518 27.62 522.518 21.867C522.518 16.125 525.092 13.001 529.844 13.001C534.508 13.001 537.324 16.334 537.324 21.867ZM554.409 2.54V34H575.221V29.71H559.029V2.54H554.409ZM594.899 25.959C593.711 29.05 591.544 30.634 588.321 30.634C584.13 30.634 581.358 27.939 580.841 23.495H599.387C599.431 22.846 599.464 22.329 599.464 21.768C599.464 14.035 595.02 9.085 588.079 9.085C581.028 9.085 576.298 14.2 576.298 21.834C576.298 29.512 581.083 34.66 588.211 34.66C593.898 34.66 598.089 31.393 599.343 25.959H594.899ZM580.929 19.645C581.6 15.564 584.218 13.111 588.101 13.111C591.885 13.111 594.261 15.432 594.855 19.645H580.929ZM601.814 18.193H606.269C606.269 15.135 608.304 13.122 612.781 13.122C617.17 13.122 619.92 15.619 619.92 19.612V20.173H610.559C604.707 20.173 601.099 22.912 601.099 27.345C601.099 31.734 604.63 34.66 609.932 34.66C615.047 34.66 618.743 31.943 619.92 27.477V34H624.375V19.612C624.375 13.023 620.041 9.085 612.858 9.085C606.071 9.085 601.814 12.616 601.814 18.193ZM619.92 23.913V24.584C619.92 28.203 616.279 30.777 611.131 30.777C607.501 30.777 605.499 29.501 605.499 27.191C605.499 25.057 607.237 23.913 610.515 23.913H619.92ZM631.813 21.977C631.813 16.587 634.123 13.991 641.218 13.991H642.307V9.745H641.207C636.081 9.745 632.935 12.649 631.813 17.478V9.745H627.358V34H631.813V21.977ZM649.248 20.877C649.248 15.971 651.921 13.111 656.398 13.111C660.556 13.111 662.624 15.575 662.624 20.437V34H667.079V20.437C667.079 13.397 663.779 9.085 658.246 9.085C653.725 9.085 650.425 11.978 649.248 16.752V9.745H644.793V34H649.248V20.877ZM674.614 1.44H669.939V6.94H674.614V1.44ZM674.504 9.745H670.049V34H674.504V9.745ZM682.056 20.877C682.056 15.971 684.729 13.111 689.206 13.111C693.364 13.111 695.432 15.575 695.432 20.437V34H699.887V20.437C699.887 13.397 696.587 9.085 691.054 9.085C686.533 9.085 683.233 11.978 682.056 16.752V9.745H677.601V34H682.056V20.877ZM721.787 9.745V16.873C720.522 12.11 717.167 9.085 712.657 9.085C706.805 9.085 702.526 14.189 702.526 21.317C702.526 28.445 706.805 33.56 712.657 33.56C717.167 33.56 720.522 30.535 721.787 25.772V29.6C721.787 35.353 718.608 39.148 713.812 39.148C709.874 39.148 706.761 36.574 706.761 33.34H702.306C702.306 38.818 707.278 42.998 713.801 42.998C721.226 42.998 726.242 37.597 726.242 29.6V9.745H721.787ZM721.787 21.317C721.787 26.509 718.971 29.644 714.186 29.644C709.555 29.644 706.981 26.707 706.981 21.317C706.981 15.927 709.555 13.001 714.186 13.001C718.971 13.001 721.787 16.125 721.787 21.317ZM747.579 16.774H738.867V25.046H747.579V16.774ZM760.331 2.54V34H782.023V29.71H764.951V20.448H780.263V16.158H764.951V6.83H781.583V2.54H760.331ZM802.852 9.745L795.251 31.239L787.738 9.745H783.118L791.731 34H798.661L807.362 9.745H802.852ZM807.822 18.193H812.277C812.277 15.135 814.312 13.122 818.789 13.122C823.178 13.122 825.928 15.619 825.928 19.612V20.173H816.567C810.715 20.173 807.107 22.912 807.107 27.345C807.107 31.734 810.638 34.66 815.94 34.66C821.055 34.66 824.751 31.943 825.928 27.477V34H830.383V19.612C830.383 13.023 826.049 9.085 818.866 9.085C812.079 9.085 807.822 12.616 807.822 18.193ZM825.928 23.913V24.584C825.928 28.203 822.287 30.777 817.139 30.777C813.509 30.777 811.507 29.501 811.507 27.191C811.507 25.057 813.245 23.913 816.523 23.913H825.928ZM837.821 1.44H833.366V34H837.821V1.44ZM858.639 22.868C858.639 27.774 855.966 30.634 851.489 30.634C847.331 30.634 845.263 28.17 845.263 23.308V9.745H840.808V23.308C840.808 30.348 844.108 34.66 849.641 34.66C854.162 34.66 857.462 31.767 858.639 27.004V34H863.094V9.745H858.639V22.868ZM866.228 18.193H870.683C870.683 15.135 872.718 13.122 877.195 13.122C881.584 13.122 884.334 15.619 884.334 19.612V20.173H874.973C869.121 20.173 865.513 22.912 865.513 27.345C865.513 31.734 869.044 34.66 874.346 34.66C879.461 34.66 883.157 31.943 884.334 27.477V34H888.789V19.612C888.789 13.023 884.455 9.085 877.272 9.085C870.485 9.085 866.228 12.616 866.228 18.193ZM884.334 23.913V24.584C884.334 28.203 880.693 30.777 875.545 30.777C871.915 30.777 869.913 29.501 869.913 27.191C869.913 25.057 871.651 23.913 874.929 23.913H884.334ZM906.334 33.813V29.963C904.475 30.458 903.089 30.689 902.066 30.689C899.47 30.689 898.304 29.193 898.304 25.981V13.485H906.334V9.745H898.304V4.157H893.849V9.745H890.549V13.485H893.849V25.97C893.849 31.668 896.489 34.649 901.318 34.649C902.792 34.649 904.464 34.374 906.334 33.813ZM913.601 1.44H908.926V6.94H913.601V1.44ZM913.491 9.745H909.036V34H913.491V9.745ZM916.038 21.867C916.038 29.534 920.79 34.66 927.896 34.66C935.002 34.66 939.754 29.534 939.754 21.867C939.754 14.2 935.002 9.085 927.896 9.085C920.79 9.085 916.038 14.2 916.038 21.867ZM920.493 21.867C920.493 16.455 923.32 13.111 927.907 13.111C932.483 13.111 935.299 16.444 935.299 21.867C935.299 27.29 932.483 30.634 927.907 30.634C923.32 30.634 920.493 27.29 920.493 21.867ZM946.728 20.877C946.728 15.971 949.401 13.111 953.878 13.111C958.036 13.111 960.104 15.575 960.104 20.437V34H964.559V20.437C964.559 13.397 961.259 9.085 955.726 9.085C951.205 9.085 947.905 11.978 946.728 16.752V9.745H942.273V34H946.728V20.877ZM985.793 16.774H977.081V25.046H985.793V16.774ZM1003.16 34V21.768H1009.93C1013.57 21.768 1015.08 22.582 1016.14 24.958L1020.19 34H1025.26L1021.2 24.947C1019.84 21.9 1018.01 20.195 1015.69 20.008C1020.96 19.854 1024.42 16.653 1024.42 11.802C1024.42 6.357 1020.04 2.54 1013.77 2.54H998.545V34H1003.16ZM1003.16 17.478V6.83H1013.15C1017.41 6.83 1019.8 8.7 1019.8 12.033C1019.8 15.432 1017.32 17.478 1013.17 17.478H1003.16ZM1044.28 25.959C1043.09 29.05 1040.92 30.634 1037.7 30.634C1033.51 30.634 1030.74 27.939 1030.22 23.495H1048.76C1048.81 22.846 1048.84 22.329 1048.84 21.768C1048.84 14.035 1044.4 9.085 1037.46 9.085C1030.41 9.085 1025.68 14.2 1025.68 21.834C1025.68 29.512 1030.46 34.66 1037.59 34.66C1043.28 34.66 1047.47 31.393 1048.72 25.959H1044.28ZM1030.31 19.645C1030.98 15.564 1033.6 13.111 1037.48 13.111C1041.26 13.111 1043.64 15.432 1044.23 19.645H1030.31ZM1055.92 1.44H1051.24V6.94H1055.92V1.44ZM1055.81 9.745H1051.35V34H1055.81V9.745ZM1063.36 20.877C1063.36 15.971 1066.03 13.111 1070.51 13.111C1074.67 13.111 1076.73 15.575 1076.73 20.437V34H1081.19V20.437C1081.19 13.397 1077.89 9.085 1072.36 9.085C1067.84 9.085 1064.54 11.978 1063.36 16.752V9.745H1058.9V34H1063.36V20.877ZM1086.53 34H1090.99V13.485H1099.13V9.745H1090.77V9.195C1090.77 5.642 1092.43 3.893 1095.82 3.893C1096.74 3.893 1097.83 4.025 1099.12 4.289V0.438999C1097.71 0.152998 1096.4 0.00999832 1095.2 0.00999832C1089.55 0.00999832 1086.53 3.189 1086.53 9.195V9.745H1082.85V13.485H1086.53V34ZM1098.85 21.867C1098.85 29.534 1103.6 34.66 1110.71 34.66C1117.82 34.66 1122.57 29.534 1122.57 21.867C1122.57 14.2 1117.82 9.085 1110.71 9.085C1103.6 9.085 1098.85 14.2 1098.85 21.867ZM1103.31 21.867C1103.31 16.455 1106.13 13.111 1110.72 13.111C1115.3 13.111 1118.11 16.444 1118.11 21.867C1118.11 27.29 1115.3 30.634 1110.72 30.634C1106.13 30.634 1103.31 27.29 1103.31 21.867ZM1129.54 21.977C1129.54 16.587 1131.85 13.991 1138.95 13.991H1140.04V9.745H1138.94C1133.81 9.745 1130.66 12.649 1129.54 17.478V9.745H1125.09V34H1129.54V21.977ZM1145.44 21.867C1145.44 16.444 1148.27 13.111 1152.85 13.111C1156.88 13.111 1159.01 15.685 1159.6 18.886H1164.05C1163.34 13.375 1159.35 9.085 1152.84 9.085C1145.74 9.085 1140.98 14.2 1140.98 21.867C1140.98 29.534 1145.74 34.66 1152.84 34.66C1159.35 34.66 1163.33 30.37 1164.05 24.859H1159.6C1159 28.06 1156.87 30.634 1152.85 30.634C1148.27 30.634 1145.44 27.29 1145.44 21.867ZM1184.63 25.959C1183.44 29.05 1181.27 30.634 1178.05 30.634C1173.86 30.634 1171.08 27.939 1170.57 23.495H1189.11C1189.16 22.846 1189.19 22.329 1189.19 21.768C1189.19 14.035 1184.75 9.085 1177.81 9.085C1170.75 9.085 1166.02 14.2 1166.02 21.834C1166.02 29.512 1170.81 34.66 1177.94 34.66C1183.62 34.66 1187.82 31.393 1189.07 25.959H1184.63ZM1170.66 19.645C1171.33 15.564 1173.94 13.111 1177.83 13.111C1181.61 13.111 1183.99 15.432 1184.58 19.645H1170.66ZM1196.16 20.877C1196.16 15.971 1198.54 13.111 1202.55 13.111C1206.27 13.111 1208.1 15.575 1208.1 20.437V34H1212.56V20.877C1212.56 15.971 1214.94 13.111 1218.95 13.111C1222.67 13.111 1224.5 15.575 1224.5 20.437V34H1228.96V20.437C1228.96 13.397 1225.91 9.085 1220.81 9.085C1216.43 9.085 1213.29 12.264 1212.36 17.445C1211.59 12.187 1208.74 9.085 1204.41 9.085C1200.3 9.085 1197.29 11.89 1196.16 16.521V9.745H1191.7V34H1196.16V20.877ZM1249.96 25.959C1248.77 29.05 1246.61 30.634 1243.38 30.634C1239.19 30.634 1236.42 27.939 1235.9 23.495H1254.45C1254.49 22.846 1254.53 22.329 1254.53 21.768C1254.53 14.035 1250.08 9.085 1243.14 9.085C1236.09 9.085 1231.36 14.2 1231.36 21.834C1231.36 29.512 1236.14 34.66 1243.27 34.66C1248.96 34.66 1253.15 31.393 1254.4 25.959H1249.96ZM1235.99 19.645C1236.66 15.564 1239.28 13.111 1243.16 13.111C1246.95 13.111 1249.32 15.432 1249.92 19.645H1235.99ZM1261.49 20.877C1261.49 15.971 1264.16 13.111 1268.64 13.111C1272.8 13.111 1274.87 15.575 1274.87 20.437V34H1279.32V20.437C1279.32 13.397 1276.02 9.085 1270.49 9.085C1265.97 9.085 1262.67 11.978 1261.49 16.752V9.745H1257.04V34H1261.49V20.877ZM1296.85 33.813V29.963C1294.99 30.458 1293.61 30.689 1292.58 30.689C1289.99 30.689 1288.82 29.193 1288.82 25.981V13.485H1296.85V9.745H1288.82V4.157H1284.37V9.745H1281.07V13.485H1284.37V25.97C1284.37 31.668 1287.01 34.649 1291.84 34.649C1293.31 34.649 1294.98 34.374 1296.85 33.813ZM1309.11 2.54V34H1329.92V29.71H1313.73V2.54H1309.11ZM1349.6 25.959C1348.41 29.05 1346.24 30.634 1343.02 30.634C1338.83 30.634 1336.06 27.939 1335.54 23.495H1354.08C1354.13 22.846 1354.16 22.329 1354.16 21.768C1354.16 14.035 1349.72 9.085 1342.78 9.085C1335.73 9.085 1331 14.2 1331 21.834C1331 29.512 1335.78 34.66 1342.91 34.66C1348.6 34.66 1352.79 31.393 1354.04 25.959H1349.6ZM1335.63 19.645C1336.3 15.564 1338.92 13.111 1342.8 13.111C1346.58 13.111 1348.96 15.432 1349.55 19.645H1335.63ZM1356.51 18.193H1360.97C1360.97 15.135 1363 13.122 1367.48 13.122C1371.87 13.122 1374.62 15.619 1374.62 19.612V20.173H1365.26C1359.41 20.173 1355.8 22.912 1355.8 27.345C1355.8 31.734 1359.33 34.66 1364.63 34.66C1369.75 34.66 1373.44 31.943 1374.62 27.477V34H1379.07V19.612C1379.07 13.023 1374.74 9.085 1367.56 9.085C1360.77 9.085 1356.51 12.616 1356.51 18.193ZM1374.62 23.913V24.584C1374.62 28.203 1370.98 30.777 1365.83 30.777C1362.2 30.777 1360.2 29.501 1360.2 27.191C1360.2 25.057 1361.94 23.913 1365.21 23.913H1374.62ZM1386.51 21.977C1386.51 16.587 1388.82 13.991 1395.92 13.991H1397.01V9.745H1395.91C1390.78 9.745 1387.63 12.649 1386.51 17.478V9.745H1382.06V34H1386.51V21.977ZM1403.95 20.877C1403.95 15.971 1406.62 13.111 1411.1 13.111C1415.25 13.111 1417.32 15.575 1417.32 20.437V34H1421.78V20.437C1421.78 13.397 1418.48 9.085 1412.94 9.085C1408.42 9.085 1405.12 11.978 1403.95 16.752V9.745H1399.49V34H1403.95V20.877ZM1429.31 1.44H1424.64V6.94H1429.31V1.44ZM1429.2 9.745H1424.75V34H1429.2V9.745ZM1436.75 20.877C1436.75 15.971 1439.43 13.111 1443.9 13.111C1448.06 13.111 1450.13 15.575 1450.13 20.437V34H1454.58V20.437C1454.58 13.397 1451.28 9.085 1445.75 9.085C1441.23 9.085 1437.93 11.978 1436.75 16.752V9.745H1432.3V34H1436.75V20.877ZM1476.49 9.745V16.873C1475.22 12.11 1471.87 9.085 1467.36 9.085C1461.5 9.085 1457.22 14.189 1457.22 21.317C1457.22 28.445 1461.5 33.56 1467.36 33.56C1471.87 33.56 1475.22 30.535 1476.49 25.772V29.6C1476.49 35.353 1473.31 39.148 1468.51 39.148C1464.57 39.148 1461.46 36.574 1461.46 33.34H1457C1457 38.818 1461.98 42.998 1468.5 42.998C1475.92 42.998 1480.94 37.597 1480.94 29.6V9.745H1476.49ZM1476.49 21.317C1476.49 26.509 1473.67 29.644 1468.88 29.644C1464.25 29.644 1461.68 26.707 1461.68 21.317C1461.68 15.927 1464.25 13.001 1468.88 13.001C1473.67 13.001 1476.49 16.125 1476.49 21.317Z" fill="white"/>
<path d="M-28.46 74.27C-28.46 84.016 -22.443 90.66 -13.61 90.66C-4.777 90.66 1.251 84.016 1.251 74.27C1.251 64.513 -4.777 57.88 -13.61 57.88C-22.443 57.88 -28.46 64.513 -28.46 74.27ZM-23.84 74.27C-23.84 66.713 -20.001 62.17 -13.61 62.17C-7.219 62.17 -3.369 66.713 -3.369 74.27C-3.369 81.827 -7.219 86.37 -13.61 86.37C-20.001 86.37 -23.84 81.827 -23.84 74.27ZM8.56016 65.745H4.10516V98.305H8.56016V82.509C9.81416 87.492 13.1472 90.66 17.5582 90.66C23.5422 90.66 27.8212 85.325 27.8212 77.867C27.8212 70.42 23.5422 65.085 17.5582 65.085C13.1472 65.085 9.81416 68.242 8.56016 73.236V65.745ZM8.56016 77.867C8.56016 72.334 11.3762 69.001 16.0402 69.001C20.7922 69.001 23.3662 72.125 23.3662 77.867C23.3662 83.62 20.7812 86.744 16.0402 86.744C11.3762 86.744 8.56016 83.411 8.56016 77.867ZM44.91 89.813V85.963C43.051 86.458 41.665 86.689 40.642 86.689C38.046 86.689 36.88 85.193 36.88 81.981V69.485H44.91V65.745H36.88V60.157H32.425V65.745H29.125V69.485H32.425V81.97C32.425 87.668 35.065 90.649 39.894 90.649C41.368 90.649 43.04 90.374 44.91 89.813ZM52.1769 57.44H47.5019V62.94H52.1769V57.44ZM52.0669 65.745H47.6119V90H52.0669V65.745ZM59.6191 76.877C59.6191 71.971 62.0061 69.111 66.0101 69.111C69.7281 69.111 71.5651 71.575 71.5651 76.437V90H76.0201V76.877C76.0201 71.971 78.4071 69.111 82.4111 69.111C86.1291 69.111 87.9661 71.575 87.9661 76.437V90H92.4211V76.437C92.4211 69.397 89.3741 65.085 84.2701 65.085C79.8921 65.085 76.7571 68.264 75.8221 73.445C75.0521 68.187 72.2031 65.085 67.8691 65.085C63.7661 65.085 60.7521 67.89 59.6191 72.521V65.745H55.1641V90H59.6191V76.877ZM99.9375 57.44H95.2625V62.94H99.9375V57.44ZM99.8275 65.745H95.3725V90H99.8275V65.745ZM122.307 69.749V65.745H102.859V69.496H117.258L102.43 85.996V90H123.154V86.249H107.512L122.307 69.749ZM125.442 74.193H129.897C129.897 71.135 131.932 69.122 136.409 69.122C140.798 69.122 143.548 71.619 143.548 75.612V76.173H134.187C128.335 76.173 124.727 78.912 124.727 83.345C124.727 87.734 128.258 90.66 133.56 90.66C138.675 90.66 142.371 87.943 143.548 83.477V90H148.003V75.612C148.003 69.023 143.669 65.085 136.486 65.085C129.699 65.085 125.442 68.616 125.442 74.193ZM143.548 79.913V80.584C143.548 84.203 139.907 86.777 134.759 86.777C131.129 86.777 129.127 85.501 129.127 83.191C129.127 81.057 130.865 79.913 134.143 79.913H143.548ZM165.547 89.813V85.963C163.688 86.458 162.302 86.689 161.279 86.689C158.683 86.689 157.517 85.193 157.517 81.981V69.485H165.547V65.745H157.517V60.157H153.062V65.745H149.762V69.485H153.062V81.97C153.062 87.668 155.702 90.649 160.531 90.649C162.005 90.649 163.677 90.374 165.547 89.813ZM172.814 57.44H168.139V62.94H172.814V57.44ZM172.704 65.745H168.249V90H172.704V65.745ZM175.251 77.867C175.251 85.534 180.003 90.66 187.109 90.66C194.215 90.66 198.967 85.534 198.967 77.867C198.967 70.2 194.215 65.085 187.109 65.085C180.003 65.085 175.251 70.2 175.251 77.867ZM179.706 77.867C179.706 72.455 182.533 69.111 187.12 69.111C191.696 69.111 194.512 72.444 194.512 77.867C194.512 83.29 191.696 86.634 187.12 86.634C182.533 86.634 179.706 83.29 179.706 77.867ZM205.941 76.877C205.941 71.971 208.614 69.111 213.091 69.111C217.249 69.111 219.317 71.575 219.317 76.437V90H223.772V76.437C223.772 69.397 220.472 65.085 214.939 65.085C210.418 65.085 207.118 67.978 205.941 72.752V65.745H201.486V90H205.941V76.877ZM245.007 72.774H236.295V81.046H245.007V72.774ZM262.378 90V77.768H269.143C272.784 77.768 274.291 78.582 275.358 80.958L279.406 90H284.477L280.418 80.947C279.054 77.9 277.228 76.195 274.907 76.008C280.176 75.854 283.63 72.653 283.63 67.802C283.63 62.357 279.252 58.54 272.982 58.54H257.758V90H262.378ZM262.378 73.478V62.83H272.366C276.623 62.83 279.01 64.7 279.01 68.033C279.01 71.432 276.535 73.478 272.388 73.478H262.378ZM303.49 81.959C302.302 85.05 300.135 86.634 296.912 86.634C292.721 86.634 289.949 83.939 289.432 79.495H307.978C308.022 78.846 308.055 78.329 308.055 77.768C308.055 70.035 303.611 65.085 296.67 65.085C289.619 65.085 284.889 70.2 284.889 77.834C284.889 85.512 289.674 90.66 296.802 90.66C302.489 90.66 306.68 87.393 307.934 81.959H303.49ZM289.52 75.645C290.191 71.564 292.809 69.111 296.692 69.111C300.476 69.111 302.852 71.432 303.446 75.645H289.52ZM329.496 65.745V72.873C328.231 68.11 324.876 65.085 320.366 65.085C314.514 65.085 310.235 70.189 310.235 77.317C310.235 84.445 314.514 89.56 320.366 89.56C324.876 89.56 328.231 86.535 329.496 81.772V85.6C329.496 91.353 326.317 95.148 321.521 95.148C317.583 95.148 314.47 92.574 314.47 89.34H310.015C310.015 94.818 314.987 98.998 321.51 98.998C328.935 98.998 333.951 93.597 333.951 85.6V65.745H329.496ZM329.496 77.317C329.496 82.509 326.68 85.644 321.895 85.644C317.264 85.644 314.69 82.707 314.69 77.317C314.69 71.927 317.264 69.001 321.895 69.001C326.68 69.001 329.496 72.125 329.496 77.317ZM341.479 77.977C341.479 72.587 343.789 69.991 350.884 69.991H351.973V65.745H350.873C345.747 65.745 342.601 68.649 341.479 73.478V65.745H337.024V90H341.479V77.977ZM371.521 81.959C370.333 85.05 368.166 86.634 364.943 86.634C360.752 86.634 357.98 83.939 357.463 79.495H376.009C376.053 78.846 376.086 78.329 376.086 77.768C376.086 70.035 371.642 65.085 364.701 65.085C357.65 65.085 352.92 70.2 352.92 77.834C352.92 85.512 357.705 90.66 364.833 90.66C370.52 90.66 374.711 87.393 375.965 81.959H371.521ZM357.551 75.645C358.222 71.564 360.84 69.111 364.723 69.111C368.507 69.111 370.883 71.432 371.477 75.645H357.551ZM388.453 65.085C382.095 65.085 378.201 67.945 378.201 72.411C378.201 77.702 383.668 78.615 387.353 79.242L388.97 79.517C392.105 80.056 395.372 80.639 395.372 83.29C395.372 85.556 392.974 86.81 388.849 86.81C384.273 86.81 382.117 85.259 382.117 82.465H377.772C377.772 87.734 381.501 90.66 388.86 90.66C395.922 90.66 399.706 87.965 399.706 83.18C399.706 77.306 394.008 76.404 389.949 75.766L388.332 75.513C385.626 75.084 382.546 74.611 382.546 72.312C382.546 70.288 384.944 68.935 388.453 68.935C392.336 68.935 394.47 70.596 394.47 73.082H398.815C398.815 68.187 395.064 65.085 388.453 65.085ZM411.903 65.085C405.545 65.085 401.651 67.945 401.651 72.411C401.651 77.702 407.118 78.615 410.803 79.242L412.42 79.517C415.555 80.056 418.822 80.639 418.822 83.29C418.822 85.556 416.424 86.81 412.299 86.81C407.723 86.81 405.567 85.259 405.567 82.465H401.222C401.222 87.734 404.951 90.66 412.31 90.66C419.372 90.66 423.156 87.965 423.156 83.18C423.156 77.306 417.458 76.404 413.399 75.766L411.782 75.513C409.076 75.084 405.996 74.611 405.996 72.312C405.996 70.288 408.394 68.935 411.903 68.935C415.786 68.935 417.92 70.596 417.92 73.082H422.265C422.265 68.187 418.514 65.085 411.903 65.085ZM430.063 57.44H425.388V62.94H430.063V57.44ZM429.953 65.745H425.498V90H429.953V65.745ZM432.5 77.867C432.5 85.534 437.252 90.66 444.358 90.66C451.464 90.66 456.216 85.534 456.216 77.867C456.216 70.2 451.464 65.085 444.358 65.085C437.252 65.085 432.5 70.2 432.5 77.867ZM436.955 77.867C436.955 72.455 439.782 69.111 444.369 69.111C448.945 69.111 451.761 72.444 451.761 77.867C451.761 83.29 448.945 86.634 444.369 86.634C439.782 86.634 436.955 83.29 436.955 77.867ZM463.19 76.877C463.19 71.971 465.863 69.111 470.34 69.111C474.498 69.111 476.566 71.575 476.566 76.437V90H481.021V76.437C481.021 69.397 477.721 65.085 472.188 65.085C467.667 65.085 464.367 67.978 463.19 72.752V65.745H458.735V90H463.19V76.877ZM502.255 72.774H493.543V81.046H502.255V72.774ZM515.007 90H519.627V78.835H529.593C536.149 78.835 540.868 74.567 540.868 68.66C540.868 62.753 536.171 58.54 529.593 58.54H515.007V90ZM519.627 74.545V62.83H529.318C533.564 62.83 536.248 65.096 536.248 68.66C536.248 72.257 533.52 74.545 529.23 74.545H519.627ZM548.174 77.977C548.174 72.587 550.484 69.991 557.579 69.991H558.668V65.745H557.568C552.442 65.745 549.296 68.649 548.174 73.478V65.745H543.719V90H548.174V77.977ZM559.615 77.867C559.615 85.534 564.367 90.66 571.473 90.66C578.579 90.66 583.331 85.534 583.331 77.867C583.331 70.2 578.579 65.085 571.473 65.085C564.367 65.085 559.615 70.2 559.615 77.867ZM564.07 77.867C564.07 72.455 566.897 69.111 571.484 69.111C576.06 69.111 578.876 72.444 578.876 77.867C578.876 83.29 576.06 86.634 571.484 86.634C566.897 86.634 564.07 83.29 564.07 77.867ZM590.305 57.44H585.85V90H590.305V82.509C591.559 87.492 594.892 90.66 599.303 90.66C605.287 90.66 609.566 85.314 609.566 77.867C609.566 70.42 605.287 65.085 599.303 65.085C594.892 65.085 591.559 68.242 590.305 73.225V57.44ZM590.305 77.867C590.305 72.334 593.121 69.001 597.785 69.001C602.537 69.001 605.111 72.114 605.111 77.867C605.111 83.62 602.526 86.744 597.785 86.744C593.121 86.744 590.305 83.4 590.305 77.867ZM611.934 74.193H616.389C616.389 71.135 618.424 69.122 622.901 69.122C627.29 69.122 630.04 71.619 630.04 75.612V76.173H620.679C614.827 76.173 611.219 78.912 611.219 83.345C611.219 87.734 614.75 90.66 620.052 90.66C625.167 90.66 628.863 87.943 630.04 83.477V90H634.495V75.612C634.495 69.023 630.161 65.085 622.978 65.085C616.191 65.085 611.934 68.616 611.934 74.193ZM630.04 79.913V80.584C630.04 84.203 626.399 86.777 621.251 86.777C617.621 86.777 615.619 85.501 615.619 83.191C615.619 81.057 617.357 79.913 620.635 79.913H630.04ZM641.933 57.44H637.478V90H641.933V82.509C643.187 87.492 646.52 90.66 650.931 90.66C656.915 90.66 661.194 85.314 661.194 77.867C661.194 70.42 656.915 65.085 650.931 65.085C646.52 65.085 643.187 68.242 641.933 73.225V57.44ZM641.933 77.867C641.933 72.334 644.749 69.001 649.413 69.001C654.165 69.001 656.739 72.114 656.739 77.867C656.739 83.62 654.154 86.744 649.413 86.744C644.749 86.744 641.933 83.4 641.933 77.867ZM668.287 57.44H663.612V62.94H668.287V57.44ZM668.177 65.745H663.722V90H668.177V65.745ZM675.729 57.44H671.274V90H675.729V57.44ZM683.391 57.44H678.716V62.94H683.391V57.44ZM683.281 65.745H678.826V90H683.281V65.745ZM701.713 89.813V85.963C699.854 86.458 698.468 86.689 697.445 86.689C694.849 86.689 693.683 85.193 693.683 81.981V69.485H701.713V65.745H693.683V60.157H689.228V65.745H685.928V69.485H689.228V81.97C689.228 87.668 691.868 90.649 696.697 90.649C698.171 90.649 699.843 90.374 701.713 89.813ZM722.994 65.745L715.393 85.941L707.88 65.745H703.26L712.885 90.715L712.577 91.529C711.642 94.037 709.849 95.126 706.912 95.126C706.296 95.126 705.636 95.082 704.866 94.983V98.866C705.493 98.954 706.175 98.998 706.89 98.998C712.126 98.998 715.448 96.688 717.461 91.529L727.504 65.745H722.994ZM743.255 74.27C743.255 66.713 747.094 62.17 753.474 62.17C758.633 62.17 761.922 65.129 762.989 70.75H767.609C766.3 62.72 760.987 57.88 753.463 57.88C744.652 57.88 738.635 64.513 738.635 74.27C738.635 84.016 744.652 90.66 753.463 90.66C760.987 90.66 766.3 85.82 767.609 77.79H762.989C761.922 83.411 758.633 86.37 753.474 86.37C747.094 86.37 743.255 81.827 743.255 74.27ZM770.31 74.193H774.765C774.765 71.135 776.8 69.122 781.277 69.122C785.666 69.122 788.416 71.619 788.416 75.612V76.173H779.055C773.203 76.173 769.595 78.912 769.595 83.345C769.595 87.734 773.126 90.66 778.428 90.66C783.543 90.66 787.239 87.943 788.416 83.477V90H792.871V75.612C792.871 69.023 788.537 65.085 781.354 65.085C774.567 65.085 770.31 68.616 770.31 74.193ZM788.416 79.913V80.584C788.416 84.203 784.775 86.777 779.627 86.777C775.997 86.777 773.995 85.501 773.995 83.191C773.995 81.057 775.733 79.913 779.011 79.913H788.416ZM800.309 57.44H795.854V90H800.309V57.44ZM807.311 77.867C807.311 72.444 810.138 69.111 814.725 69.111C818.751 69.111 820.885 71.685 821.468 74.886H825.923C825.208 69.375 821.226 65.085 814.714 65.085C807.608 65.085 802.856 70.2 802.856 77.867C802.856 85.534 807.608 90.66 814.714 90.66C821.226 90.66 825.197 86.37 825.923 80.859H821.468C820.874 84.06 818.74 86.634 814.725 86.634C810.138 86.634 807.311 83.29 807.311 77.867ZM846.168 78.868C846.168 83.774 843.495 86.634 839.018 86.634C834.86 86.634 832.792 84.17 832.792 79.308V65.745H828.337V79.308C828.337 86.348 831.637 90.66 837.17 90.66C841.691 90.66 844.991 87.767 846.168 83.004V90H850.623V65.745H846.168V78.868ZM858.157 57.44H853.702V90H858.157V57.44ZM861.309 74.193H865.764C865.764 71.135 867.799 69.122 872.276 69.122C876.665 69.122 879.415 71.619 879.415 75.612V76.173H870.054C864.202 76.173 860.594 78.912 860.594 83.345C860.594 87.734 864.125 90.66 869.427 90.66C874.542 90.66 878.238 87.943 879.415 83.477V90H883.87V75.612C883.87 69.023 879.536 65.085 872.353 65.085C865.566 65.085 861.309 68.616 861.309 74.193ZM879.415 79.913V80.584C879.415 84.203 875.774 86.777 870.626 86.777C866.996 86.777 864.994 85.501 864.994 83.191C864.994 81.057 866.732 79.913 870.01 79.913H879.415ZM901.415 89.813V85.963C899.556 86.458 898.17 86.689 897.147 86.689C894.551 86.689 893.385 85.193 893.385 81.981V69.485H901.415V65.745H893.385V60.157H888.93V65.745H885.63V69.485H888.93V81.97C888.93 87.668 891.57 90.649 896.399 90.649C897.873 90.649 899.545 90.374 901.415 89.813ZM908.682 57.44H904.007V62.94H908.682V57.44ZM908.572 65.745H904.117V90H908.572V65.745ZM911.119 77.867C911.119 85.534 915.871 90.66 922.977 90.66C930.083 90.66 934.835 85.534 934.835 77.867C934.835 70.2 930.083 65.085 922.977 65.085C915.871 65.085 911.119 70.2 911.119 77.867ZM915.574 77.867C915.574 72.455 918.401 69.111 922.988 69.111C927.564 69.111 930.38 72.444 930.38 77.867C930.38 83.29 927.564 86.634 922.988 86.634C918.401 86.634 915.574 83.29 915.574 77.867ZM941.809 76.877C941.809 71.971 944.482 69.111 948.959 69.111C953.117 69.111 955.185 71.575 955.185 76.437V90H959.64V76.437C959.64 69.397 956.34 65.085 950.807 65.085C946.286 65.085 942.986 67.978 941.809 72.752V65.745H937.354V90H941.809V76.877ZM980.874 72.774H972.162V81.046H980.874V72.774ZM993.626 76.8C993.626 85.237 998.873 90.66 1007.05 90.66C1015.22 90.66 1020.47 85.237 1020.47 76.8V58.54H1015.85V76.8C1015.85 82.883 1012.64 86.37 1007.05 86.37C1001.45 86.37 998.246 82.883 998.246 76.8V58.54H993.626V76.8ZM1028.12 76.877C1028.12 71.971 1030.8 69.111 1035.27 69.111C1039.43 69.111 1041.5 71.575 1041.5 76.437V90H1045.96V76.437C1045.96 69.397 1042.66 65.085 1037.12 65.085C1032.6 65.085 1029.3 67.978 1028.12 72.752V65.745H1023.67V90H1028.12V76.877ZM1058.78 65.085C1052.42 65.085 1048.53 67.945 1048.53 72.411C1048.53 77.702 1054 78.615 1057.68 79.242L1059.3 79.517C1062.43 80.056 1065.7 80.639 1065.7 83.29C1065.7 85.556 1063.3 86.81 1059.18 86.81C1054.6 86.81 1052.44 85.259 1052.44 82.465H1048.1C1048.1 87.734 1051.83 90.66 1059.19 90.66C1066.25 90.66 1070.03 87.965 1070.03 83.18C1070.03 77.306 1064.34 76.404 1060.28 75.766L1058.66 75.513C1055.95 75.084 1052.87 74.611 1052.87 72.312C1052.87 70.288 1055.27 68.935 1058.78 68.935C1062.66 68.935 1064.8 70.596 1064.8 73.082H1069.14C1069.14 68.187 1065.39 65.085 1058.78 65.085ZM1090.1 78.868C1090.1 83.774 1087.42 86.634 1082.95 86.634C1078.79 86.634 1076.72 84.17 1076.72 79.308V65.745H1072.27V79.308C1072.27 86.348 1075.57 90.66 1081.1 90.66C1085.62 90.66 1088.92 87.767 1090.1 83.004V90H1094.55V65.745H1090.1V78.868ZM1102.09 65.745H1097.63V98.305H1102.09V82.509C1103.34 87.492 1106.67 90.66 1111.08 90.66C1117.07 90.66 1121.35 85.325 1121.35 77.867C1121.35 70.42 1117.07 65.085 1111.08 65.085C1106.67 65.085 1103.34 68.242 1102.09 73.236V65.745ZM1102.09 77.867C1102.09 72.334 1104.9 69.001 1109.57 69.001C1114.32 69.001 1116.89 72.125 1116.89 77.867C1116.89 83.62 1114.31 86.744 1109.57 86.744C1104.9 86.744 1102.09 83.411 1102.09 77.867ZM1141.93 81.959C1140.74 85.05 1138.57 86.634 1135.35 86.634C1131.16 86.634 1128.38 83.939 1127.87 79.495H1146.41C1146.46 78.846 1146.49 78.329 1146.49 77.768C1146.49 70.035 1142.05 65.085 1135.11 65.085C1128.05 65.085 1123.32 70.2 1123.32 77.834C1123.32 85.512 1128.11 90.66 1135.24 90.66C1140.92 90.66 1145.12 87.393 1146.37 81.959H1141.93ZM1127.96 75.645C1128.63 71.564 1131.24 69.111 1135.13 69.111C1138.91 69.111 1141.29 71.432 1141.88 75.645H1127.96ZM1153.46 77.977C1153.46 72.587 1155.77 69.991 1162.86 69.991H1163.95V65.745H1162.85C1157.72 65.745 1154.58 68.649 1153.46 73.478V65.745H1149V90H1153.46V77.977ZM1185.01 65.745L1177.41 87.239L1169.9 65.745H1165.28L1173.89 90H1180.82L1189.52 65.745H1185.01ZM1196.04 57.44H1191.37V62.94H1196.04V57.44ZM1195.93 65.745H1191.48V90H1195.93V65.745ZM1208.88 65.085C1202.53 65.085 1198.63 67.945 1198.63 72.411C1198.63 77.702 1204.1 78.615 1207.78 79.242L1209.4 79.517C1212.54 80.056 1215.8 80.639 1215.8 83.29C1215.8 85.556 1213.41 86.81 1209.28 86.81C1204.7 86.81 1202.55 85.259 1202.55 82.465H1198.2C1198.2 87.734 1201.93 90.66 1209.29 90.66C1216.35 90.66 1220.14 87.965 1220.14 83.18C1220.14 77.306 1214.44 76.404 1210.38 75.766L1208.76 75.513C1206.06 75.084 1202.98 74.611 1202.98 72.312C1202.98 70.288 1205.38 68.935 1208.88 68.935C1212.77 68.935 1214.9 70.596 1214.9 73.082H1219.25C1219.25 68.187 1215.5 65.085 1208.88 65.085ZM1240.4 81.959C1239.21 85.05 1237.05 86.634 1233.82 86.634C1229.63 86.634 1226.86 83.939 1226.34 79.495H1244.89C1244.93 78.846 1244.97 78.329 1244.97 77.768C1244.97 70.035 1240.52 65.085 1233.58 65.085C1226.53 65.085 1221.8 70.2 1221.8 77.834C1221.8 85.512 1226.58 90.66 1233.71 90.66C1239.4 90.66 1243.59 87.393 1244.84 81.959H1240.4ZM1226.43 75.645C1227.1 71.564 1229.72 69.111 1233.6 69.111C1237.39 69.111 1239.76 71.432 1240.36 75.645H1226.43ZM1266.19 57.44V73.214C1264.92 68.242 1261.59 65.085 1257.19 65.085C1251.21 65.085 1246.93 70.42 1246.93 77.867C1246.93 85.325 1251.21 90.66 1257.19 90.66C1261.59 90.66 1264.92 87.503 1266.19 82.531V90H1270.64V57.44H1266.19ZM1266.19 77.867C1266.19 83.411 1263.37 86.744 1258.71 86.744C1253.97 86.744 1251.38 83.62 1251.38 77.867C1251.38 72.125 1253.96 69.001 1258.71 69.001C1263.37 69.001 1266.19 72.334 1266.19 77.867ZM1283.27 58.54V90H1304.08V85.71H1287.89V58.54H1283.27ZM1323.76 81.959C1322.57 85.05 1320.41 86.634 1317.18 86.634C1312.99 86.634 1310.22 83.939 1309.7 79.495H1328.25C1328.29 78.846 1328.33 78.329 1328.33 77.768C1328.33 70.035 1323.88 65.085 1316.94 65.085C1309.89 65.085 1305.16 70.2 1305.16 77.834C1305.16 85.512 1309.95 90.66 1317.07 90.66C1322.76 90.66 1326.95 87.393 1328.21 81.959H1323.76ZM1309.79 75.645C1310.46 71.564 1313.08 69.111 1316.96 69.111C1320.75 69.111 1323.12 71.432 1323.72 75.645H1309.79ZM1330.68 74.193H1335.13C1335.13 71.135 1337.17 69.122 1341.64 69.122C1346.03 69.122 1348.78 71.619 1348.78 75.612V76.173H1339.42C1333.57 76.173 1329.96 78.912 1329.96 83.345C1329.96 87.734 1333.49 90.66 1338.8 90.66C1343.91 90.66 1347.61 87.943 1348.78 83.477V90H1353.24V75.612C1353.24 69.023 1348.9 65.085 1341.72 65.085C1334.93 65.085 1330.68 68.616 1330.68 74.193ZM1348.78 79.913V80.584C1348.78 84.203 1345.14 86.777 1339.99 86.777C1336.36 86.777 1334.36 85.501 1334.36 83.191C1334.36 81.057 1336.1 79.913 1339.38 79.913H1348.78ZM1360.68 77.977C1360.68 72.587 1362.99 69.991 1370.08 69.991H1371.17V65.745H1370.07C1364.94 65.745 1361.8 68.649 1360.68 73.478V65.745H1356.22V90H1360.68V77.977ZM1378.11 76.877C1378.11 71.971 1380.78 69.111 1385.26 69.111C1389.42 69.111 1391.49 71.575 1391.49 76.437V90H1395.94V76.437C1395.94 69.397 1392.64 65.085 1387.11 65.085C1382.59 65.085 1379.29 67.978 1378.11 72.752V65.745H1373.66V90H1378.11V76.877ZM1403.48 57.44H1398.8V62.94H1403.48V57.44ZM1403.37 65.745H1398.91V90H1403.37V65.745ZM1410.92 76.877C1410.92 71.971 1413.59 69.111 1418.07 69.111C1422.23 69.111 1424.3 71.575 1424.3 76.437V90H1428.75V76.437C1428.75 69.397 1425.45 65.085 1419.92 65.085C1415.4 65.085 1412.1 67.978 1410.92 72.752V65.745H1406.46V90H1410.92V76.877ZM1450.65 65.745V72.873C1449.39 68.11 1446.03 65.085 1441.52 65.085C1435.67 65.085 1431.39 70.189 1431.39 77.317C1431.39 84.445 1435.67 89.56 1441.52 89.56C1446.03 89.56 1449.39 86.535 1450.65 81.772V85.6C1450.65 91.353 1447.47 95.148 1442.68 95.148C1438.74 95.148 1435.62 92.574 1435.62 89.34H1431.17C1431.17 94.818 1436.14 98.998 1442.66 98.998C1450.09 98.998 1455.11 93.597 1455.11 85.6V65.745H1450.65ZM1450.65 77.317C1450.65 82.509 1447.83 85.644 1443.05 85.644C1438.42 85.644 1435.84 82.707 1435.84 77.317C1435.84 71.927 1438.42 69.001 1443.05 69.001C1447.83 69.001 1450.65 72.125 1450.65 77.317Z" fill="white"/>
</g>
</svg>
