<svg width="124" height="34" viewBox="0 0 124 34" fill="none" xmlns="http://www.w3.org/2000/svg">
<g clip-path="url(#clip0_1315_459)">
<path d="M46.8594 28.7829V7.59331H48.7756V28.7829H46.8594Z" fill="white"/>
<path d="M52.3453 28.7829V7.59331H54.2615V28.7829H52.3453Z" fill="white"/>
<path d="M63.4689 28.7829V9.31514H56.0261V7.59331H72.8556V9.31514H65.3851V28.7829H63.4689Z" fill="white"/>
<path d="M82.24 29.0606C80.0923 29.0606 78.2872 28.5607 76.8245 27.561C75.3619 26.5612 74.2696 25.2374 73.5475 23.5897C72.844 21.9419 72.4922 20.146 72.4922 18.202C72.4922 16.2395 72.844 14.4343 73.5475 12.7866C74.2696 11.1388 75.3619 9.81503 76.8245 8.81526C78.2872 7.81548 80.0831 7.3156 82.2122 7.3156C84.4895 7.3156 86.3594 7.85251 87.822 8.92634C89.3032 10.0002 90.2844 11.4165 90.7658 13.1754H88.6274C88.2571 11.8979 87.5165 10.8889 86.4057 10.1483C85.2948 9.40771 83.8877 9.03743 82.1844 9.03743C80.4626 9.03743 79.0185 9.454 77.8521 10.2871C76.6857 11.1203 75.8155 12.2311 75.2416 13.6197C74.6861 14.9898 74.4084 16.4987 74.4084 18.1465C74.4084 19.8498 74.6954 21.3957 75.2693 22.7843C75.8618 24.1729 76.7412 25.2837 77.9076 26.1169C79.0925 26.9315 80.5274 27.3388 82.2122 27.3388C83.897 27.3388 85.3411 26.8667 86.5446 25.9225C87.748 24.9597 88.5534 23.6545 88.9607 22.0067C88.9977 21.8771 89.0255 21.7475 89.044 21.6179C89.0625 21.4698 89.081 21.3402 89.0995 21.2291C89.2106 20.3589 89.3587 19.8313 89.5439 19.6461L89.2384 19.3406C89.0903 19.4702 88.8681 19.5535 88.5719 19.5906C88.2941 19.6091 88.0257 19.6183 87.7665 19.6183C87.5258 19.6183 87.3684 19.6183 87.2944 19.6183H83.9896V17.8965H91.0991V28.7829H89.3217V24.7005H88.8774C88.8774 25.2559 88.72 25.7466 88.4052 26.1724C88.109 26.5982 87.7109 27.0148 87.2111 27.4221C86.5631 27.9405 85.7855 28.3478 84.8783 28.644C83.9896 28.9218 83.1101 29.0606 82.24 29.0606Z" fill="white"/>
<path d="M96.8489 29.8759C96.133 29.8759 95.5159 29.6167 94.9975 29.0983C94.4791 28.5799 94.2199 27.9628 94.2199 27.2469C94.2199 26.5557 94.4791 25.9633 94.9975 25.4695C95.5159 24.9758 96.133 24.729 96.8489 24.729C97.5401 24.729 98.1326 24.9758 98.6263 25.4695C99.12 25.9633 99.3668 26.5557 99.3668 27.2469C99.3668 27.9628 99.12 28.5799 98.6263 29.0983C98.1326 29.6167 97.5401 29.8759 96.8489 29.8759Z" fill="white"/>
<path d="M106.632 29.8759C104.608 29.8759 102.979 29.3452 101.744 28.2837C100.51 27.1975 99.8931 25.7287 99.8931 23.8773C99.8931 21.9765 100.634 20.483 102.115 19.3969C103.226 18.5822 104.818 17.9774 106.891 17.5825L113.631 16.2865C113.631 14.9041 113.248 13.8055 112.483 12.9909C111.668 12.1763 110.582 11.769 109.224 11.769C108.113 11.769 107.138 12.0899 106.299 12.7317C105.484 13.3489 104.966 14.1882 104.744 15.2497H100.708C101.053 13.0773 102.028 11.3987 103.633 10.2138C105.238 9.02885 107.114 8.4364 109.261 8.4364C110.471 8.4364 111.606 8.62154 112.668 8.99182C113.754 9.33742 114.667 9.85582 115.408 10.547C116.395 11.4604 117.013 12.5342 117.259 13.7685C117.531 15.0028 117.667 16.4222 117.667 18.0268V29.4686H113.594V28.691C113.594 28.1726 113.742 27.4938 114.038 26.6545L113.52 26.3952C112.976 27.3333 112.273 28.0986 111.409 28.691C110.273 29.481 108.681 29.8759 106.632 29.8759ZM107.447 26.5063C108.533 26.5063 109.52 26.2842 110.409 25.8398C111.421 25.3461 112.174 24.6672 112.668 23.8032C112.939 23.3342 113.137 22.9022 113.26 22.5072C113.384 22.0876 113.52 21.5322 113.668 20.841C113.742 20.5201 113.84 20.2855 113.964 20.1374C114.087 19.9646 114.26 19.8659 114.482 19.8412L114.371 19.2487L110.076 20.1374L107.854 20.5447C106.422 20.841 105.386 21.2853 104.744 21.8778C104.225 22.3962 103.966 23.0257 103.966 23.7662C103.966 24.6302 104.275 25.3091 104.892 25.8028C105.534 26.2718 106.385 26.5063 107.447 26.5063Z" fill="white"/>
<path d="M119.407 29.4686V8.84371H123.48V29.4686H119.407ZM121.443 5.95548C120.703 5.95548 120.061 5.70863 119.518 5.21491C118.975 4.7212 118.703 4.10406 118.703 3.36348C118.703 2.62291 118.975 2.00577 119.518 1.51205C120.061 1.01834 120.703 0.771484 121.443 0.771484C122.208 0.771484 122.85 1.01834 123.369 1.51205C123.912 2.00577 124.183 2.62291 124.183 3.36348C124.183 4.10406 123.912 4.7212 123.369 5.21491C122.85 5.70863 122.208 5.95548 121.443 5.95548Z" fill="white"/>
<path d="M34.56 33.54C28.32 28.98 15.72 20.1 0 15.78C16.92 15.78 30.72 21.06 34.56 25.5V33.54Z" fill="#0842D7"/>
<path d="M34.56 0.419983C26.16 0.419983 13.08 3.65998 0 15.78C16.08 8.57998 26.28 7.73998 34.56 7.73998V0.419983Z" fill="#00F1D4"/>
<path d="M34.56 14.1C26.16 14.1 13.08 17.34 0 29.46C16.08 22.26 26.28 21.42 34.56 21.42V14.1Z" fill="#0C0B0C"/>
<path d="M34.56 11.7C26.16 11.7 13.08 14.94 0 27.06C16.08 19.86 26.28 19.02 34.56 19.02V11.7Z" fill="#00F1D4"/>
</g>
<defs>
<clipPath id="clip0_1315_459">
<rect width="124" height="34" fill="white"/>
</clipPath>
</defs>
</svg>
