<svg width="359" height="200" viewBox="0 0 359 200" fill="none" xmlns="http://www.w3.org/2000/svg">
<g filter="url(#filter0_bd_1326_996)">
<path d="M0 188V12C0 5.37258 5.37258 0 12 0H347C353.627 0 359 5.3726 359 12V164.327C359 167.433 357.796 170.418 355.641 172.654L332.829 196.327C330.568 198.674 327.448 200 324.188 200H12C5.37258 200 0 194.627 0 188Z" fill="#282828" fill-opacity="0.05" shape-rendering="crispEdges"/>
<path d="M0.5 188V12C0.5 5.64873 5.64872 0.5 12 0.5H347C353.351 0.5 358.5 5.64874 358.5 12V164.327C358.5 167.304 357.346 170.164 355.281 172.307L332.469 195.98C330.302 198.229 327.312 199.5 324.188 199.5H12C5.64873 199.5 0.5 194.351 0.5 188Z" stroke="white" stroke-opacity="0.2" shape-rendering="crispEdges"/>
</g>
<defs>
<filter id="filter0_bd_1326_996" x="-148" y="-156" width="679" height="520" filterUnits="userSpaceOnUse" color-interpolation-filters="sRGB">
<feFlood flood-opacity="0" result="BackgroundImageFix"/>
<feGaussianBlur in="BackgroundImageFix" stdDeviation="40"/>
<feComposite in2="SourceAlpha" operator="in" result="effect1_backgroundBlur_1326_996"/>
<feColorMatrix in="SourceAlpha" type="matrix" values="0 0 0 0 0 0 0 0 0 0 0 0 0 0 0 0 0 0 127 0" result="hardAlpha"/>
<feOffset dx="12" dy="4"/>
<feGaussianBlur stdDeviation="80"/>
<feComposite in2="hardAlpha" operator="out"/>
<feColorMatrix type="matrix" values="0 0 0 0 0 0 0 0 0 0 0 0 0 0 0 0 0 0 0.8 0"/>
<feBlend mode="normal" in2="effect1_backgroundBlur_1326_996" result="effect2_dropShadow_1326_996"/>
<feBlend mode="normal" in="SourceGraphic" in2="effect2_dropShadow_1326_996" result="shape"/>
</filter>
</defs>
</svg>
