<svg width="1112" height="612" viewBox="0 0 1112 612" fill="none" xmlns="http://www.w3.org/2000/svg">
<g filter="url(#filter0_b_1134_326)">
<path d="M-135 282.247V526.303C-135 529.945 -133.346 533.39 -130.504 535.668L-39.7892 608.364C-37.6601 610.07 -35.0133 611 -32.285 611H880.5C887.127 611 892.5 605.627 892.5 599V542.066C892.5 535.439 897.873 530.066 904.5 530.066H1099C1105.63 530.066 1111 524.694 1111 518.066V59.9293C1111 56.7449 1109.73 53.6912 1107.48 51.4405L1060.51 4.51123C1058.26 2.26294 1055.21 1 1052.03 1H-69.5C-76.1274 1 -81.5 6.37256 -81.5 13V218.844C-81.5 222.028 -82.7656 225.082 -85.0182 227.333L-131.482 273.758C-133.734 276.009 -135 279.063 -135 282.247Z" fill="#282828" fill-opacity="0.5"/>
<path d="M-135 282.247V526.303C-135 529.945 -133.346 533.39 -130.504 535.668L-39.7892 608.364C-37.6601 610.07 -35.0133 611 -32.285 611H880.5C887.127 611 892.5 605.627 892.5 599V542.066C892.5 535.439 897.873 530.066 904.5 530.066H1099C1105.63 530.066 1111 524.694 1111 518.066V59.9293C1111 56.7449 1109.73 53.6912 1107.48 51.4405L1060.51 4.51123C1058.26 2.26294 1055.21 1 1052.03 1H-69.5C-76.1274 1 -81.5 6.37256 -81.5 13V218.844C-81.5 222.028 -82.7656 225.082 -85.0182 227.333L-131.482 273.758C-133.734 276.009 -135 279.063 -135 282.247Z" stroke="white" stroke-opacity="0.2"/>
</g>
<defs>
<filter id="filter0_b_1134_326" x="-215.5" y="-79.5" width="1407" height="771" filterUnits="userSpaceOnUse" color-interpolation-filters="sRGB">
<feFlood floodOpacity="0" result="BackgroundImageFix"/>
<feGaussianBlur in="BackgroundImageFix" stdDeviation="40"/>
<feComposite in2="SourceAlpha" operator="in" result="effect1_backgroundBlur_1134_326"/>
<feBlend mode="normal" in="SourceGraphic" in2="effect1_backgroundBlur_1134_326" result="shape"/>
</filter>
</defs>
</svg>
