<svg width="390" height="200" viewBox="0 0 390 200" fill="none" xmlns="http://www.w3.org/2000/svg">
<g filter="url(#filter0_bd_1263_697)">
<path d="M0 188V12C0 5.37258 5.37258 0 12 0H377.333C383.961 0 389.333 5.3726 389.333 12V164.042C389.333 167.316 387.995 170.448 385.63 172.712L360.593 196.67C358.359 198.807 355.387 200 352.296 200H12C5.37258 200 0 194.627 0 188Z" fill="#282828" fill-opacity="0.05" shape-rendering="crispEdges"/>
<path d="M0.5 188V12C0.5 5.64873 5.64873 0.5 12 0.5H377.333C383.685 0.5 388.833 5.64874 388.833 12V164.042C388.833 167.18 387.551 170.181 385.284 172.351L360.247 196.309C358.107 198.357 355.259 199.5 352.296 199.5H12C5.64873 199.5 0.5 194.351 0.5 188Z" stroke="white" stroke-opacity="0.2" shape-rendering="crispEdges"/>
</g>
<defs>
<filter id="filter0_bd_1263_697" x="-148" y="-156" width="709.333" height="520" filterUnits="userSpaceOnUse" color-interpolation-filters="sRGB">
<feFlood flood-opacity="0" result="BackgroundImageFix"/>
<feGaussianBlur in="BackgroundImageFix" stdDeviation="40"/>
<feComposite in2="SourceAlpha" operator="in" result="effect1_backgroundBlur_1263_697"/>
<feColorMatrix in="SourceAlpha" type="matrix" values="0 0 0 0 0 0 0 0 0 0 0 0 0 0 0 0 0 0 127 0" result="hardAlpha"/>
<feOffset dx="12" dy="4"/>
<feGaussianBlur stdDeviation="80"/>
<feComposite in2="hardAlpha" operator="out"/>
<feColorMatrix type="matrix" values="0 0 0 0 0 0 0 0 0 0 0 0 0 0 0 0 0 0 0.8 0"/>
<feBlend mode="normal" in2="effect1_backgroundBlur_1263_697" result="effect2_dropShadow_1263_697"/>
<feBlend mode="normal" in="SourceGraphic" in2="effect2_dropShadow_1263_697" result="shape"/>
</filter>
</defs>
</svg>
